<svg width="107" height="233" viewBox="0 0 107 233" fill="none" xmlns="http://www.w3.org/2000/svg">
<path d="M104.445 47.0185L104.445 47.0184C103.748 38.6849 102.403 32.1838 100.077 26.6694C97.754 21.1616 94.4426 16.6141 89.78 12.2022C83.7047 6.45434 79.0347 3.88867 71.9784 2.39245M104.445 47.0185L72.0821 1.90332L71.9784 2.39245M104.445 47.0185C104.935 52.8722 105.387 88.2695 105.447 125.701M104.445 47.0185L105.447 125.701M71.9784 2.39245C47.8493 -2.72363 23.3596 13.7178 18.0932 38.6238M71.9784 2.39245L18.0932 38.6238M35.4425 171.628L35.8041 171.523L41.3481 169.91C47.5248 168.114 52.1336 165.972 55.7867 163.035C59.4356 160.102 62.162 156.351 64.535 151.288C66.07 148.012 66.9567 143.346 67.1142 138.856C67.2723 134.35 66.6919 130.141 65.3905 127.742C61.0119 119.672 52.5473 114.683 43.2299 114.689C36.2083 114.694 31.0482 117.131 26.2606 122.726C21.7987 127.942 20.2251 133.232 19.4826 146.108C19.2913 149.434 19.0261 152.187 18.7152 154.174C18.5601 155.166 18.3914 155.98 18.2104 156.584C18.1201 156.885 18.0225 157.149 17.9149 157.36C17.8149 157.557 17.6745 157.775 17.4673 157.907L35.4425 171.628ZM35.4425 171.628L35.4438 172.004M35.4425 171.628L35.4438 172.004M1.17607 166.23L1.67576 166.212L1.94091 173.714L9.72932 173.939C14.2532 174.068 18.2463 174.199 18.5735 174.23L1.17607 166.23ZM1.17607 166.23L1.67576 166.212L1.41139 158.757L1.17607 166.23ZM35.4438 172.004L35.4865 184.813C35.5166 193.83 36.148 199.863 38.0829 204.341C40.0341 208.858 43.2854 211.739 48.3945 214.521L48.5983 214.147M35.4438 172.004L48.5983 214.147M48.5983 214.147L48.3945 214.521C51.4406 216.179 55.6962 217.311 59.8967 217.793C64.0923 218.275 68.3103 218.119 71.2761 217.14L71.1304 216.698M48.5983 214.147L71.1304 216.698M71.1304 216.698L71.2762 217.14C78.793 214.658 83.5675 210.606 86.8828 203.868L89.9807 197.573L90.0312 197.471M71.1304 216.698L90.0312 197.471M90.0312 197.471L90.032 197.356M90.0312 197.471L90.032 197.356M90.032 197.356L90.4381 142.901C90.5498 127.925 90.585 114.136 90.5518 103.985C90.5351 98.91 90.5014 94.7427 90.4514 91.7903C90.4265 90.3145 90.3974 89.1395 90.3643 88.3054C90.3478 87.8889 90.3301 87.5531 90.311 87.3057C90.3015 87.1824 90.2913 87.0758 90.2799 86.9897C90.2709 86.9209 90.2555 86.8149 90.2214 86.726M90.032 197.356L51.1341 98.7504M51.1341 98.7504L51.1996 98.2547C63.4322 99.8705 74.2075 96.6321 82.6728 88.8252C83.8094 87.777 84.7546 86.9532 85.5475 86.346C86.3332 85.7444 87.003 85.3288 87.586 85.131C88.1892 84.9263 88.7563 84.9387 89.2448 85.2771C89.6935 85.5879 89.9885 86.1187 90.2214 86.726M51.1341 98.7504L51.1995 98.2547C40.6484 96.8615 29.7852 89.0504 23.4366 78.2123M51.1341 98.7504L23.4366 78.2123M90.2214 86.726L89.7545 86.905L90.2213 86.7258C90.2213 86.7259 90.2213 86.7259 90.2214 86.726ZM105.447 125.701C105.495 155.373 105.472 172.589 105.267 183.119M105.447 125.701L105.267 183.119M105.267 183.119C105.062 193.658 104.675 197.46 104.007 200.329M105.267 183.119L104.007 200.329M104.007 200.329C101.915 209.311 98.3915 215.425 91.784 221.546M104.007 200.329L91.784 221.546M91.784 221.546C88.2633 224.807 84.828 227.089 80.8795 228.644M91.784 221.546L80.8795 228.644M80.8795 228.644C76.9271 230.2 72.4357 231.038 66.7898 231.378M80.8795 228.644L66.7898 231.378M66.7898 231.378C52.1229 232.262 40.6585 228.761 31.8192 220.77M66.7898 231.378L31.8192 220.77M31.8192 220.77C23.617 213.354 20.2526 203.193 19.7932 183.759M31.8192 220.77L19.7932 183.759M19.7932 183.759C19.7348 181.28 19.6188 179.016 19.4785 177.364M19.7932 183.759L19.4785 177.364M19.4785 177.364C19.4085 176.54 19.3317 175.858 19.2513 175.376M19.4785 177.364L19.2513 175.376M19.2513 175.376C19.2116 175.138 19.1681 174.93 19.1187 174.772M19.2513 175.376L19.1187 174.772M19.1187 174.772C19.0949 174.697 19.0619 174.607 19.0137 174.525M19.1187 174.772L19.0137 174.525M19.0137 174.525C18.9895 174.484 18.9503 174.426 18.8904 174.372M19.0137 174.525L18.8904 174.372M18.8904 174.372C18.83 174.317 18.7237 174.245 18.5736 174.23L18.8904 174.372ZM23.4366 78.2123C20.6908 73.5249 18.6993 66.7068 17.7244 59.4968M23.4366 78.2123L17.7244 59.4968M17.7244 59.4968C16.7501 52.2911 16.7985 44.7473 18.0932 38.6238M17.7244 59.4968L18.0932 38.6238M0.500628 165.929V161.291L0.676384 166.247L0.924322 173.262C0.784304 172.85 0.685055 172.33 0.61949 171.668C0.497923 170.44 0.498949 168.823 0.500325 166.657C0.500474 166.421 0.500628 166.179 0.500628 165.929ZM16.6776 157.152C16.5503 157.187 16.3902 157.223 16.198 157.258C16.4382 157.207 16.6521 157.15 16.8243 157.084C16.8666 157.068 16.9092 157.051 16.9511 157.031C16.9356 157.053 16.9261 157.064 16.9239 157.067C16.9212 157.068 16.9177 157.07 16.9133 157.072C16.901 157.078 16.8841 157.085 16.8615 157.094C16.816 157.111 16.7553 157.131 16.6776 157.152ZM18.0836 151.2C18.2433 149.274 18.3996 146.978 18.5288 144.57C18.7849 139.801 19.0319 136.859 19.5174 134.464C19.8641 132.755 20.3339 131.317 21.0269 129.685C19.6182 133.63 18.9123 138.627 18.4843 146.051C18.3732 147.981 18.2376 149.709 18.0836 151.2ZM25.5007 122.076C24.8607 122.824 24.2785 123.574 23.7483 124.345C26.9502 119.208 31.1338 116.078 36.907 114.388C46.3161 111.632 55.8405 114.86 61.9267 121.415C57.0876 116.528 50.3977 113.684 43.2292 113.689C35.9007 113.694 30.4683 116.271 25.5008 122.076L25.8807 122.401L25.5007 122.076ZM68.1136 138.891C68.1964 136.531 68.0828 134.204 67.7548 132.142C68.2131 133.992 68.4593 135.932 68.4628 137.938C68.4753 145.064 66.4429 151.456 62.1881 157.636L62.594 157.915L62.1881 157.636C57.9352 163.815 51.9441 167.936 43.3406 170.551L43.4796 171.008L43.3406 170.551L36.7698 172.548L36.4459 172.646L36.445 172.378L41.6274 170.871C47.8764 169.053 52.621 166.863 56.4132 163.815C60.2097 160.763 63.0205 156.876 65.4405 151.712C67.052 148.273 67.9532 143.461 68.1136 138.891ZM48.8727 213.643C43.8929 210.931 40.8551 208.202 39.0227 203.995C40.0319 205.821 41.4066 207.406 43.2543 209.199C46.2081 212.066 49.5562 214.145 53.2563 215.423C51.6301 214.928 50.1352 214.33 48.8727 213.643ZM70.9627 216.19C68.4362 217.024 64.8423 217.239 61.0984 216.91C62.5344 216.983 64.0093 216.958 65.5212 216.837C71.0402 216.393 75.8025 214.629 79.5524 211.714C77.1956 213.609 74.3792 215.062 70.9627 216.19ZM89.0329 197.235L86.8414 201.688C86.854 201.654 86.8666 201.621 86.8791 201.587C87.8664 198.948 88.3676 197.071 88.626 189.255C88.8839 181.455 88.9013 167.679 88.9013 141.218V86.3461V86.3274C89.0232 86.4907 89.1497 86.7278 89.2798 87.0637C89.2813 87.0717 89.2844 87.0894 89.2885 87.1203C89.2965 87.181 89.3051 87.2675 89.314 87.3825C89.3316 87.6117 89.3488 87.9331 89.3651 88.345C89.3978 89.1677 89.4266 90.3339 89.4516 91.8072C89.5014 94.7528 89.5351 98.915 89.5518 103.988C89.585 114.135 89.5498 127.92 89.4381 142.894L89.0329 197.235ZM87.9073 86.0779C87.9244 86.0721 87.9412 86.0667 87.9576 86.0615L82.0578 90.8183C69.244 101.148 54.4791 102.93 40.0483 95.9051C35.381 93.6331 30.9367 89.8602 27.1906 85.213C33.6778 92.8379 42.4349 98.106 51.0686 99.2461C63.5726 100.898 74.6507 97.5837 83.3507 89.5604C84.4805 88.5185 85.3992 87.7191 86.1554 87.14C86.9188 86.5554 87.4833 86.2218 87.9073 86.0779ZM20.0945 73.4392C19.0125 70.9287 18.1423 68.3382 17.5263 65.7236C16.748 62.4199 16.2887 58.0258 16.1552 53.4997C16.2647 55.547 16.4593 57.6035 16.7334 59.6308C17.401 64.5682 18.5437 69.3575 20.0945 73.4392ZM17.1148 38.4169C16.9998 38.9608 16.8945 39.5154 16.7986 40.0793C16.9901 38.7737 17.2214 37.5798 17.4924 36.5393L17.0085 36.4133L17.4924 36.5392C21.9478 19.4249 34.5669 6.61731 51.7308 1.79573L51.7308 1.79572C54.437 1.03522 57.5162 0.617392 60.7052 0.52146C40.181 1.62298 21.6529 16.9552 17.1148 38.4169ZM16.9309 157.063L16.9305 157.063L16.9309 157.063ZM2.24008 174.723L9.70057 174.938C13.6817 175.052 17.189 175.166 18.2013 175.211C18.221 175.296 18.2424 175.405 18.2649 175.54C18.3388 175.983 18.4129 176.634 18.4821 177.448C18.5895 178.713 18.683 180.351 18.7467 182.176C18.6378 180.727 18.4964 179.468 18.3411 178.692L17.7339 175.654L17.6536 175.252H17.2436H10.1589C9.90084 175.252 9.64968 175.253 9.40523 175.253C7.16723 175.254 5.49247 175.255 4.21995 175.137C3.34911 175.057 2.71384 174.923 2.24008 174.723ZM90.4673 11.4758L90.1489 11.8123L90.4673 11.4758C88.2188 9.34848 86.1495 7.64202 84.0777 6.25756C90.7187 10.2811 95.835 15.8418 99.4421 22.9992C97.1993 18.769 94.2648 15.0692 90.4673 11.4758ZM103.537 34.1846C104.702 38.8043 105.441 43.8848 105.757 49.4349C106.354 59.9298 106.571 96.1152 106.48 130.426C106.475 132.349 106.469 134.265 106.462 136.171C106.458 132.864 106.453 129.377 106.447 125.699C106.387 88.295 105.936 52.8414 105.441 46.9351L103.537 34.1846ZM104.981 200.556L104.499 200.444L104.981 200.556C105.242 199.434 105.46 198.182 105.641 196.498C105.621 196.895 105.602 197.262 105.582 197.599C105.51 198.842 105.436 199.625 105.367 199.943L105.843 200.047L105.366 199.943C102.784 211.824 96.4323 220.949 86.7731 226.744C88.7127 225.501 90.5807 224.023 92.4636 222.279C99.2212 216.02 102.845 209.728 104.981 200.556ZM81.2459 229.574C81.3886 229.518 81.5307 229.461 81.6721 229.403C79.5118 230.42 77.9174 231.044 76.1477 231.458C73.8573 231.994 71.2526 232.185 66.7277 232.387C66.6546 232.39 66.5818 232.393 66.5091 232.396C66.6225 232.39 66.7361 232.383 66.8499 232.376C72.5601 232.032 77.1638 231.182 81.2459 229.574ZM60.8537 232.492C52.7287 232.379 47.0363 231.016 40.2532 227.806C33.1086 224.426 27.8039 219.467 24.276 212.848C20.8214 206.366 19.056 198.264 18.969 188.441C19.849 205.022 23.3398 214.452 31.1486 221.512L31.4839 221.141L31.1486 221.512C38.9734 228.586 48.7782 232.201 60.8537 232.492ZM18.7935 183.782C18.826 185.159 18.8731 186.49 18.9354 187.779L18.8495 183.781L18.7935 183.782ZM35.5891 67.1574L35.5892 67.1575L50.0157 82.5568C58.6282 86.7727 67.7361 85.9213 75.1116 81.3664C82.4818 76.8148 88.1042 68.5793 89.8177 58.0482C91.8137 45.7795 88.4286 34.0208 80.5832 26.1718C72.703 18.2878 62.585 15.8746 52.2944 19.442C45.3396 21.853 39.9508 26.8924 36.2723 34.3693C34.7677 37.4275 33.9372 39.2658 33.498 41.5589C33.0622 43.8344 33.0152 46.5408 33.0152 51.3299C33.0152 55.8164 33.0909 58.5755 33.4525 60.8101C33.8174 63.0647 34.4705 64.7707 35.5891 67.1574ZM50.4554 81.6586L50.4553 81.6586C44.1798 78.5876 39.9297 74.0587 36.4946 66.7329C35.3935 64.3836 34.7833 62.7736 34.4397 60.6504C34.3172 59.8931 34.2282 59.0689 34.1644 58.1211C34.4572 59.7277 34.8477 61.3443 35.339 62.9629L35.339 62.9629C39.2546 75.8582 49.2676 83.944 61.435 83.9013C66.106 83.8849 70.303 82.866 73.9769 80.8807C66.9922 84.9411 58.5093 85.6011 50.4554 81.6586ZM34.2544 43.2739C34.314 42.7303 34.3881 42.2278 34.4802 41.747C34.8912 39.601 35.6637 37.8715 37.1695 34.8107C40.7495 27.5343 45.9513 22.6993 52.6219 20.3868C59.3788 18.0444 66.0436 18.3695 72.0146 21.2251C69.3141 20.01 65.9411 19.3033 62.6003 19.1255C58.9468 18.9311 55.2728 19.3662 52.5061 20.5098C42.8015 24.5211 36.3656 33.0259 34.2544 43.2739ZM88.0008 41.0554C87.9904 40.991 87.9796 40.9271 87.9686 40.8638C89.4703 46.1322 89.7984 51.939 88.8307 57.8876C88.6085 59.2532 88.3191 60.5782 87.9676 61.8595C87.9719 61.8347 87.9762 61.8099 87.9804 61.785C88.3702 59.4929 88.4156 56.5592 88.4156 51.3503C88.4156 46.2263 88.3637 43.2871 88.0008 41.0554ZM38.4656 131.703C36.9173 133.252 35.9077 134.866 35.2942 137.122C34.6871 139.355 34.4723 142.201 34.4723 146.203C34.4723 148.168 34.5178 149.731 34.6608 150.949C34.8025 152.156 35.0464 153.09 35.4909 153.747C35.9621 154.443 36.6252 154.781 37.4591 154.856C38.256 154.927 39.2232 154.761 40.3641 154.475C43.2873 153.741 46.409 151.124 48.7883 148.008C51.1698 144.888 52.9076 141.137 52.9368 138.021C52.9438 137.266 52.5766 136.287 52.0555 135.343C51.5238 134.381 50.7887 133.378 49.9723 132.561C48.1909 130.779 46.1143 129.769 44.0695 129.607C42.0174 129.443 40.0296 130.138 38.4656 131.703ZM35.7916 140.007C35.738 140.376 35.6898 140.754 35.6472 141.14C35.7724 139.672 35.9704 138.446 36.2592 137.385C36.823 135.311 37.7368 133.846 39.1728 132.41C40.4689 131.113 42.0791 130.517 43.7569 130.589C43.1785 130.624 42.6019 130.738 42.0371 130.93C40.025 131.613 38.2037 133.262 36.9568 135.675C36.4253 136.703 36.0442 138.27 35.7916 140.007ZM51.2789 138.893C51.3156 137.213 50.9564 135.662 50.1945 134.331C50.5686 134.816 50.9045 135.328 51.1802 135.827C51.6806 136.733 51.9414 137.524 51.9368 138.012C51.9182 140.007 51.1062 142.374 49.8049 144.667C50.7424 142.66 51.2394 140.703 51.2789 138.893ZM42.6372 152.194C43.2487 151.873 43.8643 151.508 44.456 151.112C43.0113 152.299 41.5163 153.155 40.1206 153.505C38.9918 153.788 38.1653 153.915 37.5485 153.86C36.9687 153.808 36.5981 153.599 36.3191 153.187C36.0136 152.735 35.7911 152 35.654 150.833C35.5817 150.217 35.5348 149.499 35.5069 148.667C35.565 149.388 35.6467 150.059 35.7525 150.654C35.875 151.343 36.0334 151.952 36.2361 152.425C36.4262 152.868 36.7079 153.317 37.1536 153.489L37.1539 153.489C37.8198 153.744 38.713 153.656 39.6212 153.417C40.5543 153.171 41.6021 152.739 42.6372 152.194Z" fill="#303FB2" stroke="#EDD1E7"/>
</svg>
