<svg width="33" height="34" viewBox="0 0 33 34" fill="none" xmlns="http://www.w3.org/2000/svg">
<path fill-rule="evenodd" clip-rule="evenodd" d="M29.7 0H3.3C1.47746 0 0 1.52223 0 3.4V30.6C0 32.4778 1.47746 34 3.3 34H16.5V21.2H11.55V16.4H16.5V13.8224C16.5 8.9424 18.958 6.8 22.9762 6.8C24.8628 6.8 25.8779 6.93841 26.3711 7.00566L26.4 7.0096V11.6H23.6594C21.9538 11.6 21.45 12.5088 21.45 14.3488V16.4H26.3572L25.6788 21.2H21.45V34H29.7C31.5225 34 33 32.4778 33 30.6V3.4C33 1.52223 31.5225 0 29.7 0Z" fill="#F6F5F2"/>
</svg>
