<svg width="440" height="417" viewBox="0 0 440 417" fill="none" xmlns="http://www.w3.org/2000/svg">
<rect x="78" y="69" width="362" height="348" rx="40" fill="#4061B2"/>
<mask id="mask0_165_1669" style="mask-type:alpha" maskUnits="userSpaceOnUse" x="0" y="0" width="334" height="367">
<path d="M273.541 175.386C274.511 176.451 275.281 177.716 275.806 179.108C276.332 180.5 276.602 181.993 276.602 183.5C276.602 185.007 276.332 186.5 275.806 187.892C275.281 189.284 274.511 190.549 273.541 191.614L166.491 309.169C152.787 324.225 134.2 332.683 114.821 332.682C95.4413 332.68 76.8559 324.22 63.1533 309.162C49.4508 294.103 41.7534 273.681 41.7546 252.386C41.7559 231.092 49.4555 210.67 63.1599 195.614L192.663 51.2224C202.447 40.4604 215.721 34.4099 229.565 34.4019C243.408 34.3938 256.688 40.4288 266.482 51.1794C276.277 61.9299 281.783 76.5152 281.79 91.7268C281.798 106.938 276.305 121.53 266.522 132.292L136.992 276.684C131.11 283.147 123.131 286.778 114.812 286.778C106.493 286.778 98.5152 283.147 92.6327 276.684C86.7503 270.22 83.4456 261.454 83.4456 252.313C83.4456 243.172 86.7503 234.405 92.6327 227.941L201.313 106.631C202.265 105.515 203.411 104.619 204.682 103.997C205.954 103.375 207.326 103.039 208.718 103.008C210.11 102.977 211.493 103.253 212.787 103.818C214.08 104.383 215.257 105.227 216.25 106.3C217.242 107.373 218.028 108.654 218.564 110.066C219.099 111.478 219.371 112.993 219.366 114.523C219.36 116.052 219.075 117.565 218.529 118.972C217.984 120.379 217.187 121.652 216.187 122.716L107.493 244.155C106.52 245.216 105.746 246.477 105.217 247.867C104.687 249.256 104.412 250.746 104.406 252.253C104.401 253.759 104.666 255.252 105.185 256.645C105.705 258.039 106.469 259.307 107.434 260.377C108.4 261.446 109.548 262.296 110.812 262.878C112.076 263.46 113.433 263.762 114.804 263.768C116.174 263.774 117.533 263.484 118.801 262.913C120.07 262.342 121.224 261.502 122.197 260.441L251.713 116.121C257.596 109.671 260.905 100.917 260.914 91.7855C260.922 82.654 257.629 73.8928 251.759 67.4291C245.889 60.9655 237.922 57.329 229.612 57.3196C221.301 57.3102 213.328 60.9287 207.445 67.379L77.9681 211.713C73.1176 217.034 69.2685 223.353 66.6405 230.309C64.0125 237.265 62.657 244.721 62.6516 252.253C62.6461 259.784 63.9908 267.243 66.6087 274.203C69.2266 281.163 73.0666 287.489 77.9093 292.819C82.7521 298.148 88.5028 302.378 94.8331 305.266C101.163 308.153 107.949 309.643 114.804 309.649C121.658 309.655 128.446 308.177 134.78 305.3C141.115 302.424 146.872 298.205 151.722 292.883L258.785 175.329C260.749 173.187 263.406 171.99 266.174 172.001C268.941 172.012 271.59 173.229 273.541 175.386Z" fill="#D9D9D9"/>
</mask>
<g mask="url(#mask0_165_1669)">
<rect x="79" y="70" width="207" height="274" rx="10" fill="#303FB2"/>
</g>
</svg>
