<svg width="33" height="34" viewBox="0 0 33 34" fill="none" xmlns="http://www.w3.org/2000/svg">
<path fill-rule="evenodd" clip-rule="evenodd" d="M9.9 0H23.1C28.5676 0 33 4.5667 33 10.2V23.8C33 29.4333 28.5676 34 23.1 34H9.9C4.43238 34 0 29.4333 0 23.8V10.2C0 4.5667 4.43238 0 9.9 0ZM26.4 5.1C27.225 5.1 28.05 5.95 28.05 6.8C28.05 7.65 27.225 8.5 26.4 8.5C25.575 8.5 24.75 7.65 24.75 6.8C24.75 5.95 25.575 5.1 26.4 5.1ZM24.75 17C24.75 12.3123 21.0499 8.5 16.5 8.5C11.9501 8.5 8.25 12.3123 8.25 17C8.25 21.6877 11.9501 25.5 16.5 25.5C21.0499 25.5 24.75 21.6877 24.75 17ZM16.5 11.9C13.7662 11.9 11.55 14.1833 11.55 17C11.55 19.8167 13.7662 22.1 16.5 22.1C19.2338 22.1 21.45 19.8167 21.45 17C21.45 14.1833 19.2338 11.9 16.5 11.9Z" fill="#F6F5F2"/>
</svg>
