<svg width="91" height="54" viewBox="0 0 91 54" fill="none" xmlns="http://www.w3.org/2000/svg">
<path d="M24.8685 45.2338C24.7012 45.0557 24.5771 44.8507 24.4908 44.6186ZM25.1491 43.4584C25.1491 45.482 24.7498 47.2844 23.9458 48.8655C23.1417 50.4466 21.9815 51.6932 20.4651 52.5998C18.9488 53.5064 17.1356 53.9543 15.0256 53.9543C12.2142 53.9543 9.88294 53.2527 8.02661 51.8605C6.17027 50.4628 5.11799 48.5687 4.86436 46.1728H9.11667C9.44045 47.3168 10.1366 48.2396 11.205 48.9465C12.2735 49.6534 13.5416 50.0042 15.0256 50.0042C16.7579 50.0042 18.1555 49.4429 19.2186 48.3259C20.2871 47.2089 20.8159 45.5846 20.8159 43.4584V19.6822C20.0874 20.7183 19.1053 21.5925 17.8641 22.2994C16.623 23.0063 15.2145 23.3571 13.6334 23.3571C11.8256 23.3571 10.1797 22.8714 8.68496 21.9001C7.19018 20.9288 6.01378 19.5743 5.15037 17.8313C4.28696 16.0883 3.84985 14.1132 3.84985 11.9007C3.84985 9.69362 4.28156 7.73475 5.15037 6.02951C6.89878 2.58666 10.5521 0.250054 14.4213 0.0180117C17.8101 -0.181652 20.6918 1.28615 22.71 4.04907C24.8685 7.00085 24.9495 10.7783 25.0898 14.2859M19.9417 8.02615C19.3535 6.90912 18.5818 6.0565 17.6267 5.4683C16.6715 4.8855 15.6462 4.5887 14.54 4.5887C13.4337 4.5887 12.4084 4.8747 11.4533 5.44671C10.4981 6.01872 9.72645 6.85515 9.13825 7.9614C8.55005 9.06765 8.25325 10.3736 8.25325 11.8953C8.25325 13.4117 8.55005 14.7446 9.13825 15.8886C9.72645 17.0326 10.5035 17.9068 11.4695 18.5058C12.4354 19.1048 13.4553 19.407 14.5346 19.407C15.6354 19.407 16.6661 19.1156 17.6213 18.5274C18.5764 17.9446 19.3481 17.0866 19.9363 15.9534C20.5245 14.8201 20.8213 13.498 20.8213 11.9817C20.8267 10.4599 20.5299 9.14319 19.9417 8.02615Z" fill="#FFB2FF"/>
<path d="M7.88604 48.2124C7.34641 47.8239 7.0712 47.1601 6.95248 46.5072C6.4722 43.9439 6.65028 41.3105 6.60172 38.7203C6.60172 36.8315 6.52617 34.9428 6.49379 33.0595C6.46681 31.5809 7.01723 29.9296 8.20442 28.9691C10.4385 27.1559 13.8274 28.7371 14.1404 31.473C14.3994 33.7287 13.0125 36.2595 10.8918 37.1229C7.52988 38.4882 3.84959 38.3803 0.250244 38.4504" stroke="#FFB2FF" stroke-width="4" stroke-miterlimit="10"/>
<path d="M59.1673 5.46295C58.2391 3.73612 56.971 2.40323 55.3683 1.46967C53.7602 0.536105 51.9686 0.0720215 49.9881 0.0720215C48.0077 0.0720215 46.2107 0.536105 44.608 1.46967C42.9999 2.40323 41.7372 3.73073 40.809 5.46295C39.8808 7.19517 39.4167 9.17562 39.4167 11.4097C39.4167 12.3217 39.4923 13.1851 39.638 14.0053C41.4134 14.124 43.0916 14.6691 44.608 15.5541C44.0576 14.4316 43.777 13.0502 43.777 11.4043C43.777 9.80699 44.0522 8.45791 44.6026 7.35166C45.153 6.25081 45.8977 5.41438 46.8421 4.85856C47.7811 4.29734 48.8064 4.02213 49.9072 4.02213C51.0081 4.02213 52.0388 4.30274 52.9939 4.85856C53.949 5.41978 54.7099 6.25081 55.2873 7.35166C55.8647 8.45791 56.1507 9.80699 56.1507 11.4043C56.1507 13.0016 55.8486 14.3561 55.2496 15.4785C54.6452 16.5956 53.8627 17.4374 52.8968 17.9932C51.9308 18.5544 50.8947 18.8296 49.7939 18.8296C49.2165 18.8296 48.6768 18.7541 48.1696 18.6084C49.1679 19.8118 50.0043 21.2094 50.6303 22.7474C52.287 22.634 53.8195 22.17 55.228 21.3605C56.8685 20.4162 58.169 19.0779 59.1241 17.3457C60.0793 15.6134 60.5541 13.633 60.5541 11.3989C60.5595 9.17562 60.0955 7.19517 59.1673 5.46295Z" fill="#FFB2FF"/>
<path d="M32.5312 52.8373H28.3544L28.2627 30.2051C28.403 26.6975 28.4839 22.92 30.6425 19.9683C32.6607 17.2053 35.5423 15.7375 38.9312 15.9372C42.8004 16.1692 46.4537 18.5059 48.2021 21.9487C49.0655 23.6539 49.5026 25.6074 49.5026 27.8199C49.5026 30.027 49.0709 32.0075 48.2021 33.7505C47.3387 35.4935 46.1569 36.8534 44.6675 37.8193C43.1781 38.7906 41.5269 39.2763 39.7191 39.2763C38.138 39.2763 36.7295 38.9255 35.4884 38.2186C34.2472 37.5171 33.2597 36.6429 32.5366 35.6014V52.8373H32.5312ZM32.5312 27.9008C32.5312 29.4172 32.828 30.7447 33.4162 31.8725C34.0044 33.0058 34.7761 33.8638 35.7312 34.4466C36.6864 35.0348 37.7117 35.3262 38.8179 35.3262C39.8972 35.3262 40.9171 35.024 41.883 34.425C42.849 33.826 43.626 32.9572 44.2142 31.8078C44.8024 30.6638 45.0992 29.3309 45.0992 27.8145C45.0992 26.2981 44.8024 24.9868 44.2142 23.8806C43.626 22.7743 42.8544 21.9379 41.8992 21.3659C40.9441 20.7939 39.9188 20.5079 38.8125 20.5079C37.7117 20.5079 36.681 20.7993 35.7258 21.3875C34.7707 21.9757 33.999 22.8283 33.4108 23.9453C32.828 25.0678 32.5312 26.3845 32.5312 27.9008Z" fill="#FFB2FF"/>
<path d="M88.7387 2.00366C88.7872 6.35849 88.6685 10.5029 88.5606 14.998C88.5228 16.6169 87.6109 18.7916 85.4955 18.565C83.3585 18.3383 83.0456 16.0827 82.6732 14.4206C82.3872 13.1363 81.6965 11.3609 80.2071 11.0371C78.7825 10.7295 77.7302 11.798 77.2229 12.9582C76.8614 13.7784 76.6617 14.658 76.4351 15.5215C76.0789 16.8975 76.0573 18.6729 75.0644 19.7953C74.5733 20.3512 73.8394 20.7235 73.0785 20.7181C70.9794 20.6965 70.2509 18.2304 69.9433 16.6061C69.4684 14.0806 69.204 11.4526 68.864 8.90556C68.8047 8.44148 68.7399 7.98279 68.6536 7.54029" stroke="#FFB2FF" stroke-width="4" stroke-miterlimit="10"/>
<path d="M69.8304 4.68025C69.5929 4.29171 68.7403 2.9858 67.0998 1.92812C66.3713 1.45864 64.9899 0.71395 63.1281 0.530475C61.0236 0.320018 59.3291 0.913614 58.3308 1.38849C59.3885 2.43538 60.2843 3.67113 60.9588 5.0472C61.5254 4.87451 62.2 4.78278 62.9501 4.8907C63.4303 4.96086 64.3045 5.16592 65.114 5.82966C66.6196 7.05463 66.5549 8.09615 66.8084 9.57471L66.8247 9.71504L71.1418 10.2547L70.872 7.55651C70.7753 6.69103 70.6022 5.93762 69.8304 4.68025Z" fill="#FFB2FF"/>
<path d="M32.5688 16.0075V9.57509C32.558 9.2621 32.5364 7.02263 34.2632 5.61959C35.0781 4.96123 35.9469 4.75078 36.4271 4.68062C37.4309 4.53492 38.3051 4.75078 38.958 5.03139C39.6002 3.66612 40.4474 2.43576 41.4619 1.38347C40.5715 0.903201 38.6828 0.0721672 36.2491 0.315002C34.3873 0.503873 33.0059 1.24317 32.2774 1.71265C30.6369 2.77572 29.7843 4.07624 29.5468 4.46477C28.2355 6.58553 28.2301 8.70628 28.2787 9.56969V20.5944C29.3634 18.7111 30.8365 17.1353 32.5688 16.0075Z" fill="#FFB2FF"/>
</svg>
