<svg width="149" height="149" viewBox="0 0 149 149" fill="none" xmlns="http://www.w3.org/2000/svg">
<path d="M42.4686 130.959C49.617 137.204 60.2202 144.622 70.0699 144.421C74.3516 144.338 78.082 142.797 81.1508 139.867M42.4686 130.959L43.1314 130.21C43.1306 130.209 43.1299 130.208 43.1292 130.208M42.4686 130.959L43.1265 130.205C43.1274 130.206 43.1283 130.207 43.1292 130.208M42.4686 130.959C42.1863 130.709 41.8899 130.449 41.5824 130.18C41.1893 129.836 40.7781 129.476 40.3553 129.1L40.2597 129.016C35.6558 124.971 29.3815 119.459 23.6328 115.202C20.0678 112.573 17.5134 111.032 15.6942 110.128C12.9377 108.772 11.8351 108.889 11.486 109.023M43.1292 130.208C46.6715 133.303 51.0476 136.668 55.7358 139.23C60.4361 141.799 65.3704 143.517 70.0495 143.422L70.0503 143.422C74.0817 143.343 77.572 141.901 80.4589 139.145M43.1292 130.208C42.8346 129.947 42.538 129.687 42.2329 129.42C41.8468 129.082 41.4469 128.732 41.0197 128.352L41.0153 128.349L40.9064 128.253C36.3101 124.215 30.0104 118.68 24.2279 114.398L24.2263 114.397C20.6309 111.745 18.0261 110.17 16.1393 109.232L16.1357 109.231C13.3548 107.862 11.9119 107.796 11.1415 108.084M80.4589 139.145L81.1508 139.867M80.4589 139.145C80.4594 139.144 80.4598 139.144 80.4603 139.144L81.1508 139.867M80.4589 139.145C82.1344 137.539 83.1434 135.907 83.5659 134.264C83.9857 132.631 83.8482 130.905 83.0924 129.061M81.1508 139.867C84.6975 136.468 85.6714 132.717 84.0176 128.681M84.0176 128.681L83.0924 129.061M84.0176 128.681L83.0923 129.06C83.0923 129.061 83.0923 129.061 83.0924 129.061M84.0176 128.681L61.1566 111.002M83.0924 129.061C81.7559 125.803 78.586 122.622 74.7486 119.693C70.9374 116.783 66.6102 114.225 63.1117 112.161L63.111 112.161C62.9286 112.053 62.746 111.946 62.5647 111.839C62.0794 111.553 61.6022 111.272 61.1566 111.002M61.1566 111.002C61.1746 111.011 61.1901 111.019 61.2017 111.025C61.2148 111.031 61.2266 111.036 61.2292 111.038L61.2297 111.038C61.2336 111.04 61.2254 111.036 61.2154 111.031C61.2041 111.026 61.1856 111.016 61.1632 111.004C61.16 111.002 61.1568 111 61.1535 110.998C61.1382 110.989 61.1215 110.979 61.1038 110.967L61.452 110.386L61.6168 110.111M61.1566 111.002L63.6198 111.3C63.4336 111.19 63.2488 111.081 63.0662 110.974C62.5817 110.689 62.1123 110.412 61.6719 110.145C61.6535 110.128 61.6351 110.128 61.6168 110.111M61.1566 111.002C61.1499 110.998 61.1429 110.994 61.1356 110.99C61.1147 110.978 61.0917 110.964 61.0671 110.948M61.1566 111.002C61.1553 111.001 61.154 111 61.1527 110.999L61.1026 110.969C61.1018 110.968 61.1011 110.968 61.1004 110.968C61.0893 110.961 61.0782 110.954 61.0671 110.948M61.6168 110.111L60.9432 110.85C60.9765 110.881 61.0102 110.908 61.0437 110.931C61.0516 110.937 61.0595 110.942 61.0671 110.948M61.6168 110.111L61.0671 110.948M11.1415 108.084L11.1501 108.081L11.486 109.023M11.1415 108.084L11.1352 108.086C10.7021 108.24 9.64235 108.618 9.35255 109.909L9.35059 109.918L9.34879 109.926C9.18135 110.74 9.33099 111.778 9.90053 113.14M11.1415 108.084C11.1369 108.086 11.1323 108.087 11.1278 108.089L11.486 109.023M11.486 109.023C11.0633 109.173 10.4937 109.391 10.3283 110.128C10.218 110.664 10.2915 111.484 10.8244 112.757M9.90053 113.14C9.90015 113.139 9.89977 113.138 9.89939 113.137L10.8244 112.757M9.90053 113.14C10.9899 115.791 13.3905 119.096 15.6324 122.184L15.8351 122.463L16.6497 121.883M9.90053 113.14C9.90103 113.141 9.90154 113.142 9.90204 113.143L10.8244 112.757M10.8244 112.757C11.8667 115.295 14.2092 118.521 16.4946 121.669L16.6497 121.883M16.6497 121.883L15.8405 122.47L15.8377 122.466C16.0604 122.779 16.2871 123.091 16.5105 123.399L16.5115 123.4C16.7371 123.71 16.9593 124.016 17.1765 124.321L17.1805 124.327C17.4134 124.649 17.6505 124.971 17.8843 125.289C18.1191 125.608 18.3506 125.922 18.5771 126.236L18.577 126.236L18.5844 126.246C20.5133 128.848 22.3971 131.409 23.462 133.986M16.6497 121.883C16.8703 122.193 17.0954 122.502 17.3205 122.812C17.5456 123.122 17.7707 123.432 17.9912 123.741C18.2209 124.06 18.4552 124.378 18.6895 124.696C18.9238 125.014 19.1581 125.332 19.3878 125.65C21.299 128.229 23.2652 130.892 24.3862 133.604M24.3862 133.604L23.461 133.984C23.4613 133.985 23.4617 133.985 23.462 133.986M24.3862 133.604L23.462 133.986M24.3862 133.604C26.426 138.577 25.1396 142.881 20.4353 146.732C17.9728 148.742 14.9775 149.445 11.78 148.725L19.8024 145.958M23.462 133.986C24.4113 136.302 24.5585 138.383 23.9821 140.301C23.4013 142.234 22.0518 144.116 19.8024 145.958M19.8024 145.958C17.5828 147.769 14.9031 148.403 11.9997 147.749L11.9964 147.749C8.53572 146.982 5.00619 144.5 1.92395 141.198C-1.14326 137.912 -3.67565 133.91 -5.17254 130.267M19.8024 145.958L-12.0358 110.128L-11.081 109.831C-11.0808 109.831 -11.0806 109.832 -11.0805 109.832C-9.97951 113.368 -8.95017 117.174 -7.99676 120.698L-7.92817 120.952L-8.89343 121.213M19.8024 145.958C19.8026 145.958 19.8028 145.958 19.8031 145.957L20.4347 146.732L19.8018 145.958C19.802 145.958 19.8022 145.958 19.8024 145.958ZM-5.17254 130.267C-5.49761 129.444 -5.77723 128.677 -5.98413 127.954L-5.98609 127.947C-6.60173 125.852 -7.23606 123.508 -7.90998 121.019L-7.92813 120.952L-8.89343 121.213M-5.17254 130.267C-5.17342 130.265 -5.17429 130.263 -5.17517 130.261L-6.10022 130.64M-5.17254 130.267C-5.17175 130.269 -5.17096 130.271 -5.17017 130.273L-6.10022 130.64M-8.89343 121.213L-8.87331 121.287C-8.20081 123.772 -7.56417 126.124 -6.94553 128.229M-8.89343 121.213L-6.94553 128.229M-35.3003 69.2201L-35.5603 70.1857C-35.5606 70.1856 -35.5609 70.1856 -35.5611 70.1855C-37.6093 69.634 -39.7925 68.9433 -42 68.1936V89.9405C-38.2128 90.9525 -34.513 91.5823 -31.1454 92.1555L-30.9078 92.1959C-30.9077 92.1959 -30.9076 92.196 -30.9075 92.196C-27.692 92.737 -24.7268 93.2364 -22.2856 93.9606C-19.8581 94.6808 -17.7727 95.6705 -16.4569 97.3111L-18.6526 69.5729M-35.3003 69.2201C-26.8104 71.5142 -21.4813 71.4304 -19.4231 68.9354L-18.6535 69.574C-18.6532 69.5736 -18.6529 69.5733 -18.6526 69.5729M-35.3003 69.2201C-37.42 68.6494 -39.6942 67.9253 -42 67.1371L-35.3003 69.2201ZM-18.6526 69.5729C-17.8475 68.6018 -17.3923 66.931 -17.4702 64.2099C-17.5492 61.4527 -18.1817 57.4408 -19.7625 51.5946L-19.7626 51.5941C-20.6417 48.3499 -20.921 43.5306 -20.6551 38.8598C-20.388 34.1652 -19.5816 29.8324 -18.4182 27.5033L-18.4174 27.5016C-17.2605 25.1747 -14.5866 21.9443 -11.1325 19.6723C-7.68561 17.405 -3.62503 16.1916 0.395046 17.5542C3.71937 18.6906 6.38968 21.4378 8.24485 25.9779L8.24598 25.9806M-18.6526 69.5729L8.24598 25.9806M-6.94553 128.229C-6.72502 128.999 -6.43099 129.803 -6.10022 130.64M-6.94553 128.229L-6.10022 130.64M11.5411 57.5991C11.7065 57.9843 11.9086 58.2355 12.1292 58.3359C12.2578 58.2857 12.901 58.001 14.1873 56.0586M11.5411 57.5991L69.1143 32.2139L68.3601 31.5573C68.3603 31.557 68.3606 31.5567 68.3608 31.5565C71.1255 28.3806 73.7042 24.4779 75.2232 20.5116C76.7468 16.5333 77.1599 12.6155 75.7973 9.30205C74.9278 7.20056 73.381 5.3753 71.1578 3.91447C65.8886 0.481066 60.5446 0.0850123 55.0853 2.70644C50.2698 5.02098 46.1588 9.31527 43.0201 12.9112C35.9194 21.074 28.2047 33.3774 22.9513 42.3154L22.9505 42.3168C21.3843 44.9718 19.9979 47.5978 18.7862 49.9232L18.7837 49.928C17.3963 52.5563 16.1574 54.9022 15.0205 56.6116C15.0203 56.6119 15.0201 56.6122 15.02 56.6124L14.1873 56.0586M11.5411 57.5991C10.772 55.7135 11.2073 51.8157 11.6286 48.0435M11.5411 57.5991L11.6286 48.0435M14.1873 56.0586C15.2899 54.4009 16.5027 52.1068 17.8993 49.4611L14.1873 56.0586ZM8.24598 25.9806C9.9883 30.209 10.6763 35.0748 11.0981 38.9178L8.24598 25.9806ZM94.7578 109.17L94.7587 109.171C105.242 112.962 113.053 114.898 118.842 115.225L118.843 115.225C120.77 115.335 123.818 115.066 127.057 114.194C130.295 113.322 133.64 111.868 136.219 109.668L136.236 109.654L136.253 109.641C136.304 109.601 136.329 109.577 136.372 109.535C136.408 109.499 136.456 109.452 136.544 109.372L136.546 109.37C139.24 106.931 140.573 104.044 140.591 100.715C140.591 98.4993 140.223 96.4882 139.49 94.7003C136.985 88.6105 130.071 84.7066 118.869 83.7801C114.589 83.4332 110.282 83.4986 106.071 83.5823L106.068 83.5824L105.91 83.5851C102.085 83.6509 98.41 83.7142 95.0863 83.4281L95.0852 83.428C89.4757 82.9388 83.0912 81.9611 77.9908 80.8119L77.9879 80.8113C71.6602 79.3656 69.4775 78.1899 68.7276 77.6168L67.7983 76.9066L68.6443 76.099C69.2495 75.5213 70.6178 74.8092 73.9851 74.118L73.9867 74.1177C77.4958 73.4033 82.2873 72.8628 87.784 72.2618L94.7578 109.17ZM94.7578 109.17C90.5513 107.654 85.9366 105.835 80.8384 103.713L94.7578 109.17ZM11.6286 48.0435L11.633 48.0043L11.6286 48.0435ZM40.8104 96.0952C40.811 96.0966 40.8116 96.098 40.8122 96.0994L41.7335 95.7105L40.8085 96.0906C40.8092 96.0921 40.8098 96.0937 40.8104 96.0952ZM-17.2363 97.9376L-16.4561 97.3121L-17.2363 97.9376ZM57.5422 53.4067C57.6798 53.7755 57.8795 54.0924 58.1428 54.3607C58.5037 54.7346 59.2118 54.9974 60.5616 54.9395C61.9619 54.8794 64.2622 54.4673 68.0858 53.2073L67.7728 52.2575L68.0859 53.2073C73.1595 51.5351 79.4568 48.8668 85.5524 46.2841L86.1102 46.0477C86.1114 46.0472 86.1126 46.0467 86.1138 46.0462C87.3654 45.5263 88.5987 45.0063 89.8137 44.4863C93.6161 42.8706 107.006 37.564 120.408 36.2567C127.614 35.5538 133.646 36.0886 138.22 37.6854C142.782 39.278 145.837 41.9011 147.263 45.3703L147.284 45.4222L147.293 45.4384C147.294 45.4397 147.294 45.4411 147.295 45.4426L147.296 45.4453C147.302 45.4622 147.314 45.4965 147.329 45.5325C147.338 45.5545 147.349 45.5814 147.364 45.6116C148.376 48.2468 148.189 50.7579 146.74 53.2046L146.736 53.2109L146.732 53.2174C145.223 55.8525 142.267 58.3863 137.727 60.7498C133.201 63.1062 127.19 65.2474 119.698 67.1456C108.647 69.9324 97.148 71.2163 87.8527 72.2541L87.7863 72.2616L57.5422 53.4067Z" stroke="#20BBEA" stroke-width="2"/>
</svg>
