<svg width="205" height="211" viewBox="0 0 205 211" fill="none" xmlns="http://www.w3.org/2000/svg">
<path d="M40.3967 116.505L40.3976 116.505C57.3365 112.538 72.5695 102.703 87.9857 92.7492C88.6774 92.3026 89.3695 91.8558 90.0621 91.4092C90.9241 90.8533 91.7774 90.2171 92.6657 89.5484C92.7281 89.5014 92.7906 89.4543 92.8534 89.407C93.6748 88.7882 94.5271 88.1461 95.406 87.5544C97.2987 86.2803 99.4117 85.171 101.888 84.9251L103.074 84.8072L102.983 85.9965C102.946 86.4893 102.937 86.8778 102.929 87.2355C102.925 87.3977 102.922 87.5535 102.916 87.7099C102.899 88.1469 102.864 88.6923 102.6 89.1771C102.6 89.1777 102.6 89.1784 102.599 89.1791L101.721 88.7C100.78 90.4436 99.7974 92.1542 98.8182 93.858C98.225 94.8903 97.6331 95.9201 97.053 96.9533L40.3967 116.505ZM40.3967 116.505C31.6558 118.56 24.3823 118.159 18.4982 115.352C12.6238 112.55 7.98657 107.28 4.65023 99.2997C-1.68609 84.117 1.64707 62.6893 12.7829 48.8561C23.432 35.6738 35.4111 24.7235 49.0622 16.6183C67.0938 5.96824 85.7854 -2.31929 104.499 -10.6165C108.798 -12.5226 113.098 -14.4292 117.392 -16.3651C121.781 -18.3327 126.218 -20.6406 130.663 -23.0391L263.998 15.1664L240.732 96.3644L225.266 150.341L209.31 206.027C203.805 209.959 197.282 210.824 190.649 207.664L190.647 207.663C182.772 203.935 176.296 197.937 172.098 188.899C166.459 176.705 164.288 163.132 163.54 148.806C163.506 148.095 163.507 147.347 163.509 146.566C163.513 143.506 163.519 139.939 161.439 136.118L160.373 134.158L159.62 136.258C158.737 138.719 157.927 141.083 157.143 143.373C155.556 148.004 154.074 152.328 152.312 156.524C146.138 171.151 138.12 183.811 125.788 191.961L125.786 191.961C113.215 200.297 100.884 199.965 92.0055 193.688C83.0897 187.384 77.4074 174.909 78.582 158.475C80.1811 136.486 87.3662 116.45 97.9265 97.4401L40.3967 116.505Z" stroke="#20BBEA" stroke-width="2"/>
</svg>
